<?xml version="1.0" encoding="iso-8859-1"?>
<!-- Uploaded to: SVG Repo, www.svgrepo.com, Generator: SVG Repo Mixer Tools -->
<svg fill="#000000" version="1.1" id="Layer_1" xmlns="http://www.w3.org/2000/svg" xmlns:xlink="http://www.w3.org/1999/xlink" 
	 viewBox="0 0 512 512" xml:space="preserve">
<g>
	<g>
		<path d="M504.943,99.5c-5.977-7.158-14.772-11.164-24.761-11.164H54.375c-6.713,0-12.984,1.929-18.381,5.123L15.466,72.959
			c-3.539-3.539-9.273-3.524-12.812,0.016s-3.539,9.279,0,12.818l21.058,20.54c-3.197,5.406-4.541,11.69-4.541,18.417v45.195
			c0,20.014,15.207,36.175,35.19,36.175h10.286c6.512,22.651,11.741,58.766-9.091,95.228
			c-28.641,50.115-38.462,85.102-30.91,110.035c3.929,12.98,12.564,22.845,25.664,29.393c1.256,0.628,2.645,0.911,4.052,0.911
			h108.723c4.428,0,8.211-3.143,8.936-7.514c4.937-29.614,11.923-67.291,19.249-101.234c8.888-0.708,146.057-13.566,161.178-126.82
			h109.626c19.479,0,37.467-14.938,40.953-34.093l8.406-46.239C513.189,116.135,510.822,106.552,504.943,99.5z M260.585,296.252
			c-26.986,12.36-53.765,16.734-65.165,18.114c7.388-32.118,14.794-58.301,20.505-66.875c4.371-6.556,10.936-14.964,19.368-24.829
			c0.903,7.441,3.376,15.975,9.251,23.133c8.052,9.821,20.271,14.805,36.325,14.805c5.004,0,9.06-4.052,9.06-9.06
			c0-5.008-4.057-9.06-9.06-9.06c-10.326,0-17.815-2.723-22.261-8.103c-8.06-9.753-5.176-25.975-5.092-26.444
			c0.119-0.593,0.172-1.812,0.172-1.812h80.454C327.984,246.892,303.276,276.716,260.585,296.252z M493.604,122.609l-8.406,46.18
			C483.297,179.229,472.71,188,462.075,188H344.366c-0.062,0-0.115,0-0.168,0h-98.349c-2.535,0-4.951,1.121-6.667,2.988
			c-17.811,19.35-30.707,34.936-38.334,46.376c-16.984,25.473-39.404,152.227-45.421,186.203H56.605
			c-7.543-4.53-12.33-9.912-14.617-17.459c-5.844-19.297,4.017-51.493,29.3-95.741c26.473-46.328,16.696-92.726,8.512-116.244
			c-1.265-3.636-4.698-6.123-8.556-6.123H54.362c-9.994,0-17.07-8.029-17.07-18.054V124.75c0-10.025,7.085-18.293,17.083-18.293
			h425.807c4.521,0,8.374,1.688,10.847,4.652C493.494,114.064,494.409,118.185,493.604,122.609z"/>
	</g>
</g>
<g>
	<g>
		<rect x="182.248" y="124.577" width="280.869" height="18.121"/>
	</g>
</g>
</svg>